<svg id="Слой_1" data-name="Слой 1" xmlns="http://www.w3.org/2000/svg" viewBox="0 0 258.52 305.4"><defs><style>.cls-3{fill:#423e3c}.cls-8{fill:#312d2b}</style></defs><path d="M395.3 379c-23.05 0-28.2 20.79-36.8 25.84V298.43a22.11 22.11 0 00-44.21 0v90.15l-92.81-.9V336.3a22.11 22.11 0 10-44.21 0v121.41c0 96.59 53.85 107 120.27 107 62.87 0 102.93-9.29 107-92.2a108.66 108.66 0 016-30.85l2.72-7.69a94.27 94.27 0 005.42-31.52A23.44 23.44 0 00395.3 379z" transform="translate(-168.74 -267.8)" fill="#f3dcc0"/><path d="M317.8 380.73a34.42 34.42 0 00-49.91 0 34.43 34.43 0 00-49.92 0 37.52 37.52 0 000 51.71l49.93 51.73 49.93-51.73a37.52 37.52 0 00-.03-51.71z" transform="translate(-168.74 -267.8)" fill="#c54b8d"/><path class="cls-3" d="M367 404.81h-17V298.43a13.58 13.58 0 00-27.16 0v90.15h-17.07v-90.15a30.63 30.63 0 1161.26 0z" transform="translate(-168.74 -267.8)"/><path class="cls-3" d="M297.53 573.2c-32.22 0-65.4-2.27-89.8-18.72-26.24-17.67-39-49.33-39-96.77V336.3a30.64 30.64 0 0161.27 0v51.38h-17V336.3a13.58 13.58 0 10-27.16 0V459c.12 21.43 3.07 39.23 8.79 52.91 5.17 12.35 12.58 21.66 22.67 28.46 20.61 13.89 50.77 15.81 80.28 15.81 30.7 0 54.48-2.3 70.71-13.5 17.18-11.85 26-34.29 27.81-70.6a117 117 0 016.51-33.27l2.73-7.69a86 86 0 004.92-28.68 14.92 14.92 0 00-14.96-14.94c-17.73 0-29.65 12.75-29.65 31.73v39.69h-8.52a49.51 49.51 0 00-49.46 49.45h-17.05a66.61 66.61 0 0158-66v-23.14c0-13.45 4.52-25.72 12.72-34.57 8.5-9.17 20.56-14.22 34-14.22a32 32 0 0132 32 102.58 102.58 0 01-5.9 34.36l-2.72 7.7a100 100 0 00-5.56 28.42c-2.08 42.05-13.25 68.68-35.15 83.79-19.95 13.68-46.59 16.49-80.48 16.49z" transform="translate(-168.74 -267.8)"/><path d="M292.84 387.07a17.55 17.55 0 0112.69 5.5 20.48 20.48 0 010 28l-8 8.28-29.67 30.74-26.26-27.2-11.4-11.82a20.48 20.48 0 010-28 17.4 17.4 0 0125.38 0l12.27 12.7 12.26-12.7a17.58 17.58 0 0112.69-5.49m0-17.06a34.56 34.56 0 00-24.95 10.71 34.43 34.43 0 00-49.92 0 37.52 37.52 0 000 51.71l49.93 51.73 49.93-51.73a37.52 37.52 0 000-51.71 34.55 34.55 0 00-25-10.72z" transform="translate(-168.74 -267.8)" fill="#a41b65"/><path d="M395.3 379c-23.05 0-28.2 20.79-36.8 25.84V298.43a22.11 22.11 0 00-44.21 0v90.15l-92.81-.9V336.3a22.11 22.11 0 10-44.21 0v121.41c0 96.59 53.85 107 120.27 107 62.87 0 102.93-9.29 107-92.2a108.66 108.66 0 016-30.85l2.72-7.69a94.27 94.27 0 005.42-31.52A23.44 23.44 0 00395.3 379z" transform="translate(-168.74 -267.8)" fill="#ffdb4d"/><path d="M317.8 380.73a34.42 34.42 0 00-49.91 0 34.43 34.43 0 00-49.92 0 37.52 37.52 0 000 51.71l49.93 51.73 49.93-51.73a37.52 37.52 0 00-.03-51.71z" transform="translate(-168.74 -267.8)" fill="#e42119"/><path class="cls-8" d="M367 404.81h-17V298.43a13.58 13.58 0 00-27.16 0v90.15h-17.07v-90.15a30.63 30.63 0 1161.26 0z" transform="translate(-168.74 -267.8)"/><path class="cls-8" d="M297.53 573.2c-32.22 0-65.4-2.27-89.8-18.72-26.24-17.67-39-49.33-39-96.77V336.3a30.64 30.64 0 0161.27 0v51.38h-17V336.3a13.58 13.58 0 10-27.16 0V459c.12 21.43 3.07 39.23 8.79 52.91 5.17 12.35 12.58 21.66 22.67 28.46 20.61 13.89 50.77 15.81 80.28 15.81 30.7 0 54.48-2.3 70.71-13.5 17.18-11.85 26-34.29 27.81-70.6a117 117 0 016.51-33.27l2.73-7.69a86 86 0 004.92-28.68 14.92 14.92 0 00-14.96-14.94c-17.73 0-29.65 12.75-29.65 31.73v39.69h-8.52a49.51 49.51 0 00-49.46 49.45h-17.05a66.61 66.61 0 0158-66v-23.14c0-13.45 4.52-25.72 12.72-34.57 8.5-9.17 20.56-14.22 34-14.22a32 32 0 0132 32 102.58 102.58 0 01-5.9 34.36l-2.72 7.7a100 100 0 00-5.56 28.42c-2.08 42.05-13.25 68.68-35.15 83.79-19.95 13.68-46.59 16.49-80.48 16.49z" transform="translate(-168.74 -267.8)"/><path class="cls-8" d="M292.84 387.07a17.55 17.55 0 0112.69 5.5 20.48 20.48 0 010 28l-8 8.28-29.67 30.74-26.26-27.2-11.4-11.82a20.48 20.48 0 010-28 17.4 17.4 0 0125.38 0l12.27 12.7 12.26-12.7a17.58 17.58 0 0112.69-5.49m0-17.06a34.56 34.56 0 00-24.95 10.71 34.43 34.43 0 00-49.92 0 37.52 37.52 0 000 51.71l49.93 51.73 49.93-51.73a37.52 37.52 0 000-51.71 34.55 34.55 0 00-25-10.72zM202 476.64l.35-.31.17-.21.15-.14.1-.35.13-.34h.16a.94.94 0 01.38-.08h.37l.19-.07.27-.14.31-.23a.58.58 0 01.13.42.43.43 0 01-.25.41l.31.11.33.12.13.13.1.1.1.31a1 1 0 01.11.31l-.36.11-.29.16-.08.21.06.19a1.27 1.27 0 00-.65-.09 2 2 0 00-.47.3l-.33.37-.25.46a.89.89 0 00-.13.5 1 1 0 00.27.48l.54.41.79.67.81.69.55.45.22.23-.37.38.37.25.46.12.52.1a1.87 1.87 0 01.54.25l.15.15.08.08-.08.34-.13.33a.6.6 0 01.68-.22 3 3 0 01.65.39 2 2 0 01-1.23.67 2.79 2.79 0 01-1.28-.2 5.94 5.94 0 01-1.17-.7l-1.06-1 .13-.13-.13-.2-.21-.34-.2-.33-.17-.21-.4.06-.25.17.11-.44a.73.73 0 01.33-.45 1.09 1.09 0 00-1.33 0l-.17-.46a1.74 1.74 0 01-.21-.41c-.07-.16-.13-.33-.2-.51s-.12-.33-.16-.46-.09-.39-.15-.76a2.12 2.12 0 01.22-1.15v-.23l-.05-.21a.42.42 0 00.49-.06zm1.33-.91h.44l-.23-.23zm-.78 1.55h-.11a.15.15 0 000 .25h.23v-.21a.12.12 0 00-.12-.04zm4.51-4a3.51 3.51 0 011.18-.31l1-.08a1.44 1.44 0 00.85-.44v-.25l-.33.13-.3.12.07-.1.1-.15a1.81 1.81 0 01.4-.31.28.28 0 01.27-.06l.2.21.3.29.22-.15.17-.16v-.46a1.74 1.74 0 011-.46l1-.21.12-.12.11-.11.08-.33a1.29 1.29 0 01.09-.2.66.66 0 00.08-.13h.33l.06.1.11.15.1-.11.19-.14.06-.15.15-.27.12-.29.09-.17.25-.12.41-.13.42-.08.27-.1.1-.36.13-.33.31-.1.35-.11.07-.14.14-.32.15-.27.08-.16a.58.58 0 01.33-.17l.44-.06h.79l-.44-.44 1.65-1.64a1.69 1.69 0 01.51 1.47 3.73 3.73 0 01-.62 1.59l-.62.83a3.07 3.07 0 01-.73.54q-.42.22-.54.27l-.77.31-.67.21.11.1.1.11.31.1.38.13a.9.9 0 01-.48.18h-.64a.62.62 0 00-.36.19l.23.23a3.76 3.76 0 01-1.06.73l-1.19.47-1.2.38-.62.28a4.17 4.17 0 00-.46.26l-.86.6a5.37 5.37 0 01-1.06.81c-.18.13-.31.23-.4.31l-.25.18-.23.15a1.42 1.42 0 01-.3.13 4.42 4.42 0 01-1.23.61 2.22 2.22 0 01-1.1.14 1.58 1.58 0 01-1-.48.56.56 0 010-.91 5.52 5.52 0 011.48-1.26zm-1.29 1.17a.15.15 0 000 .25h.23a.74.74 0 000-.21c-.06-.16-.14-.17-.23-.07zm-2 2a.16.16 0 000 .25.26.26 0 00.15 0l.08-.05a1.38 1.38 0 000-.22.15.15 0 00-.23-.01zm-1.52 1.81c-.15.15-.17.29 0 .41s.24.09.39-.06.18-.28.07-.4-.29-.12-.46.02zm5.74-4.91l.23.23.23-.23zm3.06-2.27q-.23.22-.39.06c-.1-.1-.09-.23 0-.41s.29-.17.41-.05.13.22-.02.37zm-.46.46c-.14.14-.26.15-.37 0s-.09-.23 0-.4.29-.16.42 0 .11.21-.05.37zm-2.26 2.46a1.25 1.25 0 00-.55 0l.52.19a.41.41 0 00.19 0h.38zm4.26-3.6c-.14.14-.27.15-.4 0s-.09-.23.05-.37.28-.17.39-.06.1.25-.04.41zm-6.2 6.2c-.15.16-.29.17-.42 0s-.09-.24.07-.39.28-.17.39-.06.09.25-.04.43zm5.2-5q-.22.23-.06.39c.1.1.23.09.42 0s.16-.29 0-.41-.21-.14-.36.01zm.6-.27l.21.21.23-.23zm-2 2.2a.15.15 0 00-.21 0 .13.13 0 000 .21h.21q.05 0 .01-.22zm.93-.6a.26.26 0 000 .38c.1.09.23.09.4 0s.16-.29 0-.41-.23-.13-.39.02zm-8.28 9a.26.26 0 01-.39 0c-.11-.11-.1-.24 0-.38s.28-.17.4-.06.15.25 0 .42zm9.64-9.88c-.16.15-.18.28-.07.39s.24.09.42 0a.24.24 0 000-.39c-.08-.18-.21-.16-.34-.05zm4.41-4c-.14.14-.16.27-.05.38a.25.25 0 00.4 0c.15-.16.17-.29 0-.42s-.19-.13-.34-.01zm-3.1 3.1c-.16.16-.18.29-.07.4s.27.11.42 0 .17-.3 0-.42-.14-.13-.34 0zm1.66-1l-.19-.06-.14.06v.09c0 .12.11.18.2.16s.14 0 .23-.14zm2.54-2.74c-.15.15-.17.29 0 .41s.25.1.41 0 .17-.29 0-.42-.24-.19-.4-.05zm-14.27 15.43a.26.26 0 01-.38 0c-.09-.09-.09-.23 0-.39s.3-.17.42 0 .12.18-.03.33zm13.79-13.92c-.1.1-.09.18 0 .23h.21v-.2a.15.15 0 00-.2-.09zm-10.74 14.81s-.08 0-.14.07-.1.16 0 .21h.23v-.23c0-.03-.05-.11-.08-.11zm1 .57c-.16.15-.18.28-.07.39s.25.1.42 0 .16-.29 0-.41-.12-.19-.31-.04zm.16 1c-.15.15-.29.16-.41 0s-.1-.24.06-.4a.22.22 0 01.35 0 .26.26 0 01.07.34zm1.07-.3q-.22.23-.39.06c-.11-.11-.1-.25 0-.42s.29-.16.41 0 .16.22-.02.36zm1.13-.17l-.17-.21-.25-.16-.44-.07h1.33l.15-.1.31-.44.25-.58.29-.62.34-.5.33-.21a3 3 0 01.85-.48l1.1-.6 1.15-.56a2 2 0 01.3-.16l.4-.19a3 3 0 01.38-.15.37.37 0 01.27 0l.21.29.21.41a1.06 1.06 0 01.12.46.45.45 0 010 .33l-.25.25-.35.4-.34.37-.22.27c-.11.11-.27.26-.47.43a8 8 0 01-.68.51 4.68 4.68 0 01-.66.56c-.23.15-.56.36-1 .6-.24.13-.41.23-.53.31a1.57 1.57 0 01-.24.13l-.42.21a3.61 3.61 0 01-.46.17 3.34 3.34 0 01-1.45.25l-.11-.32v-.12h.08l.19-.11zm1.1-1.6c-.14.14-.27.15-.38 0s-.1-.24 0-.39.3-.17.42-.05.14.3-.01.45zm-.9.89c-.14.14-.26.16-.37.05s-.09-.23 0-.4.29-.17.42 0 .14.23-.02.36zm1 .09c-.15.15-.16.29 0 .41s.24.09.4-.06.17-.28.06-.39-.26-.09-.43.05zm4-2.81l-.15-.19-.21-.16h-.1c-.08.08 0 .2.1.35a.35.35 0 00.33.08zm.72.06l-.22.15-.13.2v.13a.51.51 0 00.31-.1.41.41 0 00.13-.34zm.75 1.12q-.21.21-.39 0c-.11-.12-.1-.24 0-.38s.28-.17.39-.06.2.29.01.45zm-5.29 6.78l.16-.13.11-.06.31.15.46.17.47.21.31.15a1.2 1.2 0 00.94.23 2.7 2.7 0 00.8-.33l.55-.36q.21-.08.51.21c.09-.12.2-.24.31-.37l.25-.27.37-.37.4-.28a7.18 7.18 0 01.79-.37l1.22-.53 1.2-.63 2.82-2c.47-.36.91-.71 1.31-1.06s.84-.76 1.31-1.23l-.62-.62a3.6 3.6 0 01-.6-.76 1.34 1.34 0 01-.11-.72 1.48 1.48 0 01.48-.83c.11-.11.35-.08.73.1l1 .64 1 .86.66.66.39.39a2.18 2.18 0 01.35.51.89.89 0 01.14.52.62.62 0 01-.21.5 1.45 1.45 0 01-.54.33 1.65 1.65 0 01-.26.14 2.53 2.53 0 01-.4.1 1.2 1.2 0 01-.61-.05.91.91 0 01-.4-.52l-1.7 1.21-1.64 1.31-1.69 1.31a19 19 0 01-1.71 1.11l-1.11.6-1.2.51-1 .7a6.63 6.63 0 00-.64.51c-.13.11-.22.2-.29.27v.41a1.63 1.63 0 01.28.49l.11.11.11.11v.46l.07.45a1 1 0 00.28.15l.36.07a1.14 1.14 0 00-.65.14l-.48.48-.09-.09v-.53l-.09-.13-.66-.46-1.21-.66-1.23-.65a3.09 3.09 0 00-.75-.29l.23.23a.49.49 0 00-.07-.22c0-.09-.11-.2-.2-.34a3.92 3.92 0 01-.48-.56l-.33-.54a.59.59 0 01.18-.54zm1.56 1.56c-.11-.12-.24-.1-.38 0s-.15.26 0 .37.24.11.4 0a.29.29 0 00-.02-.37zm5-1.52c-.11-.11-.24-.11-.39 0s-.17.29-.05.41.25.09.4-.06.16-.24.05-.35zm4.95-4.16c-.11-.11-.23-.1-.37 0s-.15.26 0 .37.23.1.37 0a.27.27 0 00-.02-.37zm3.93-3q0-.09-.06-.06a.21.21 0 00-.1.06c-.1.1-.11.17 0 .21a.18.18 0 00.14 0 .23.23 0 01.11 0 1.07 1.07 0 00-.04-.23zm6.1-1.31l-.32-.05-.35-.12v-.21l.06-.22-.11-.11-.13-.13-.68-.18-.11-.11a.53.53 0 01-.05-.55l.38-.68.51-.68.42-.42a1.17 1.17 0 01.58-.35 1.87 1.87 0 01.58 0l.55.3.49.49a.94.94 0 00-.35.73l.33.83a1.46 1.46 0 01.32.7.81.81 0 01-.24.68 3.28 3.28 0 01-.95.68 1.78 1.78 0 01-1.15.08zm-4.54 3.7c.12.11.09.25-.06.4a.28.28 0 01-.37 0c-.11-.11-.11-.24 0-.4s.32-.14.44-.02zm1.29-.46c.12.12.09.25-.06.4s-.28.17-.39.06-.09-.24.06-.39.29-.24.4-.09zm-5.41 12.57l-1.23 1.1a8 8 0 01-1.37.89 3.18 3.18 0 01-1.36.38 1.35 1.35 0 01-1.12-.46l.79-.83 1-1 1.1-1c.22-.16.4-.29.55-.38s.38-.21.7-.36a2 2 0 011.07-.14 1.94 1.94 0 011.09.59zm4.1 7.1a4 4 0 01.74-1.13l-.62-.62h.48l-.25-.79h.5c-.17-.14-.19-.36-.07-.65l.54-1.08c.07-.1.13-.18.17-.25a1.18 1.18 0 00.1-.19 1.9 1.9 0 00.17-.33c.07-.15.15-.34.25-.58a3.16 3.16 0 00.35-1.48l.07-.18.1-.19.62.62.19-.18-.48-.44-.43-.31-.44-.32-.5-.45c-.25.25-.46.44-.63.59l-.41.32a.5.5 0 01-.27.11.46.46 0 01-.21-.05 1.38 1.38 0 00-.39-.27 1.24 1.24 0 00-1 0l.42-.33a.69.69 0 00.33-.67 1.11 1.11 0 00-.25-.49.84.84 0 00-.56 0l-.69.18-.64.15a.74.74 0 01-.55-.21l-.08-.08.08-.46.15-.35.37-.13.38-.12.14-.4.13-.37.37-.13.4-.14.12-.13.11-.1.12-.38.13-.37a3.69 3.69 0 01.93-.69l1.09-.62 1.12-.58.89-.65v-.52l.11-.1.12-.13.19-.1.31-.15.34-.16.18-.11a1.14 1.14 0 000-.26.49.49 0 000-.24 4.41 4.41 0 00.67-.39c.23-.17.43-.31.58-.44l1.29-1.08 1.1-1.15.4-.39.27-.27.13-.2a.57.57 0 01.1-.11h1l-.21.79a1.89 1.89 0 000 1 .61.61 0 00-.42 0l-.44.1-.41.21-.23.18-.15.19-.12.33-.17.34-.08.16-.08.09-.23.23-.25.29-.19.18-.46.42-.29.29-.39.15a.58.58 0 00-.23.06l-.15.06a1 1 0 00-.14.4l-.11.35-.64.56-.9.77-.91.58c-.28.14-.47.18-.56.11l-.21.33-.27.44-.34.46-.2.29-.25.16-.44.23-.38.25-.2.13-.38.37-.37.38a1.21 1.21 0 001.14.18 5.54 5.54 0 001.35-.48l1.4-.68a5.15 5.15 0 01.64-.31 2 2 0 01.63-.13l-.77.77a5.26 5.26 0 01.59-.38 6.21 6.21 0 01.88-.39 8.19 8.19 0 01.82-.29l1.35-.42c.44-.13.81-.24 1.1-.31a2.74 2.74 0 01.4-.08l.68-.13a7.91 7.91 0 011.13-.12h.49l.19.06.34.17.31.14.18.11.23.06.27-.06-.14-.11-.11-.14v-.5l4.56-1.52.15.06a.63.63 0 01.21.47 1.62 1.62 0 01-.17.61l-.31.52-.36.4a3.89 3.89 0 01-1.41.91l-.49.2a3.13 3.13 0 01-.35.14l-.57.15-.42.14-2 .41-2.06.48c-.27.07-.58.17-1 .29a9.62 9.62 0 00-1 .38 5 5 0 00-1.47 1 2.71 2.71 0 00-.65 1.1 9.75 9.75 0 00-.35 1.39l-.31 1.4a2.66 2.66 0 01-.59 1.08l-.43.31a2.21 2.21 0 01-.59.13l.52.52-.62.62a1 1 0 01.25.75 4 4 0 01-.25 1l-.48.93-.43.77-.15.15a2.1 2.1 0 01-.67.41 4.6 4.6 0 01-1.28.24 1.35 1.35 0 01-1.07-.38l.17-.17.54-.41a.79.79 0 01.67-.09 2.57 2.57 0 01.23-1.51zm-5.91-7.25a.33.33 0 00-.05.46c.11.11.27.1.46 0a.35.35 0 00.06-.48c-.11-.15-.27-.13-.47.02zm-1.05 1.21c-.09.1-.09.18 0 .25s.23 0 .25 0v-.25c-.07-.1-.15-.1-.25 0zm5.1-4.22c-.17.16-.19.32-.08.46s.27.09.48-.07.18-.32 0-.45-.2-.08-.4.06zm0 .52a.3.3 0 000 .41c.12.13.27.12.44 0a.34.34 0 00.06-.47c-.19-.15-.34-.12-.52.06zm7.07-6.58a.31.31 0 000 .46c.1.1.24.08.44-.06s.19-.32.08-.46-.33-.09-.54.06zm-2 2a.33.33 0 000 .46c.11.11.26.09.44-.06a.32.32 0 00.06-.44c-.2-.09-.34-.08-.53.06zm-4.12 5.95a.34.34 0 01-.48.06c-.11-.11-.09-.27.06-.47a.27.27 0 01.44 0 .29.29 0 01-.05.43zm0 1.31a.45.45 0 010-.27h.25c.04 0 .09.18 0 .25a.21.21 0 01-.26.04zm2.6-2.22a.34.34 0 00-.06.48q.13.13.45-.09a.29.29 0 000-.41c-.09-.11-.24-.1-.4.04zm3-.81a.18.18 0 000 .27h.27v-.25c-.1-.07-.18-.07-.31 0zm.69-.57l.62.63a.83.83 0 00.19-.81.77.77 0 00-.85.2zm-1.67 2.38a.34.34 0 00-.06.47q.17.17.48-.06a.33.33 0 000-.46c-.11-.09-.26-.07-.46.07zm3.79-2.79l-.31-.06h-.25v.08l.15.15h.33a.48.48 0 00.25 0l-.1-.15zm-2 2a.32.32 0 000 .45c.13.13.28.11.46 0a.35.35 0 00.06-.48c-.24-.1-.4-.08-.6.09zm3.31-2.77c-.17.17-.18.32 0 .46s.29.12.46 0a.34.34 0 000-.46c-.21-.11-.36-.09-.54.06zm-1.31 1.73l.23.23.25-.25zm1.06-1c-.17.17-.19.32-.08.46s.27.09.48-.07a.3.3 0 000-.45c-.14-.02-.29 0-.45.14zm-7.57 7.57c-.15.15-.18.3-.06.44s.27.11.45 0a.32.32 0 000-.46c-.13-.06-.28-.04-.47.1zm1.72-1.06a.18.18 0 00-.29 0 .18.18 0 000 .25h.22c.09.04.09-.05-.01-.17zm-.22 1.06a.28.28 0 000 .44.3.3 0 00.44 0 .34.34 0 00.06-.48.622.622 0 00-.58.12zm-.48 1a.32.32 0 00-.06.44c.11.11.26.09.45 0a.33.33 0 000-.46c-.16-.07-.31-.05-.47.12zm0 1a.29.29 0 000 .44c.11.11.25.09.41-.05s.2-.31.08-.45-.4.01-.59.18zm-.29 1.16l.49.05v-.55zm-.21.34a.31.31 0 000 .45c.12.13.27.11.43-.06s.2-.32.09-.46-.42.03-.62.19zm-1.29 2.95a1.66 1.66 0 01-.27 0c-.09-.08-.09-.18 0-.29s.19-.1.25 0zm1.18 0a.32.32 0 01-.45 0c-.13-.12-.12-.28 0-.46a.33.33 0 01.48-.06c.08.25.08.41-.13.62zm2.71 4.16h-.23l-.1-.11a1.45 1.45 0 01-.29-.37l-.13-.34-.14-.31-.44-.43.67-.21-.48-.15-.38-.29-.18-.27-.15-.44a1 1 0 01-.14-.46v-.16l.14-.19.29-.29.61-.56.81-.6c.15-.1.29-.19.42-.26a1.63 1.63 0 01.43-.18 1.08 1.08 0 01.35-.13h.48l2-2h.46v.43l.71-.16a1.41 1.41 0 01.83 0v-.46h.46v-.44a2 2 0 00.85-.1l1-.54.62-.32a2.83 2.83 0 01.57-.24 1.6 1.6 0 01.91-.13v-.44a.75.75 0 01.44-.27l.29.13c.09.16.25.2.5.1a3 3 0 001-.75 1.5 1.5 0 00.31-.31 2.34 2.34 0 01.42-.41 3.57 3.57 0 01.59-.41 2.46 2.46 0 01.88-.28v.44a4.35 4.35 0 01.55-.67l.2-.21a2.67 2.67 0 01.36-.31 1.41 1.41 0 00.22-.11 2.08 2.08 0 01.42-.2 3.8 3.8 0 012.33-.17l-.93.94.14.31.21.33.25.17c.08 0 .23-.1.44-.31l.77.41c.38.21.87.5 1.45.86l2.17 1.37-.42.42a1.84 1.84 0 01.75.16l.56.31.56.19a1.17 1.17 0 00.77-.19 1.21 1.21 0 000 .36l.23.48.29.45.17.25a.71.71 0 00.61.2 1.52 1.52 0 00.7-.22v.29l.14.44.15.4.21.29a1.31 1.31 0 01-.62.32 2.38 2.38 0 01-.74.07h-1.29l.32-.6a.93.93 0 00.12-.71l-1.56.65c0-.17 0-.28-.06-.32l-.15-.35-.35-.1-.31-.11-.82-.43c-.37-.21-.74-.43-1.12-.67l-2-1.33-1.91-1.33-.89-.64a5.63 5.63 0 00-.73-.45c-.7.48-1.4.92-2.13 1.34s-1.48.81-2.28 1.2l-4.6 2.1-1.33.67-1 .52-1 .62-1.16.84h-.23a.32.32 0 01-.23 0l-1.46 1.45 1.56 1.44 1.56 1.31 1.56 1.31 1.56 1.39.3.29.39.44.46.46.27.27a.63.63 0 00.21.54l.43.48a2.81 2.81 0 01.44.52.47.47 0 010 .46l-.17.16-.31.23-.35.19-.21.12.63.63-.92-.17-.87-.29.35-.35v-.17l-.06-.15-.38.09-.29.16.23-.68-.4-.07-.29-.16-.08-.17-.15-.27-.1-.27-.08-.17-.11-.1-.12-.12-.67-.21-.1-.11c-.1-.09-.14-.16-.13-.2l-.08-.21v-.25l-.17-.25a1.33 1.33 0 00-.62-.38 1.54 1.54 0 01-.65-.35l-.23-.27c-.05-.08 0-.22 0-.42a1.06 1.06 0 01-.65 0l-.77-.35-.77-.48-.52-.48.48-.47zm-1.29-3.75a.29.29 0 000 .4c.11.11.24.09.38 0s.15-.27 0-.38-.23-.18-.38-.02zm.9-.43c-.16.15-.17.29-.05.41s.25.09.4-.06.15-.26 0-.38-.19-.09-.35.03zm5.18-3.6c-.13.12-.25.13-.36 0a.26.26 0 010-.38c.16-.15.29-.16.42 0s.09.25-.06.38zm-.09.75q-.23.22-.06.39c.11.11.24.09.4-.06s.17-.29.06-.4-.24-.09-.4.07zm-4.45 6.12a.25.25 0 000 .4c.11.11.24.1.37 0s.18-.29.07-.4-.29-.09-.44 0zm1.35.44c-.15.15-.17.28-.06.4s.24.08.42-.05a.26.26 0 000-.39c-.09-.08-.22-.07-.36.07zm-.89.89c-.15.16-.17.29-.06.4s.23.08.41 0 .17-.29 0-.42-.2-.1-.35.05zm8.11-7.4a.35.35 0 01.21-.13v.21a.44.44 0 000 .25l.33.08.34.13.27.23.43.39a2.89 2.89 0 00.44.36l.29.25-.23.23.61.6c.16.11.31.21.43.31a2.92 2.92 0 01.29.25l1.46 1 1.48 1.06a11.82 11.82 0 01.95.77c.2.18.35.33.46.44a1.68 1.68 0 01.52.85 2.73 2.73 0 00.56.81 1.23 1.23 0 01-.89.27 4.63 4.63 0 01-1.19-.23l-1.16-.5a3.31 3.31 0 01-.75-.54l-.15-.31-.06-.35-.19-.19a11.85 11.85 0 00-1.69-1.34c-.48-.3-.74-.52-.78-.68l-.73-.68-1-1.13a2 2 0 01-.38-.53 3.27 3.27 0 01-.28-.67 1 1 0 01.27-1.11zm-7.24 8.28c-.15.15-.16.29 0 .41s.24.09.4-.06.17-.28.06-.39-.29-.07-.46.07zm1.56-.23c-.15.15-.16.29 0 .42s.24.09.4-.07a.28.28 0 000-.37c-.14-.1-.26-.09-.4.04zm0 .89a.25.25 0 000 .4c.11.11.24.1.38 0s.17-.29.06-.4-.29-.11-.46.03zm7.51-6.17q-.22.22-.06.39c.1.1.23.08.42 0s.16-.29 0-.42-.23-.1-.38.06zm8.8-7.06a.25.25 0 000 .4c.11.11.24.1.37 0s.18-.29.07-.4-.29-.11-.49.03zM237.72 514c-.15.15-.17.29 0 .41s.24.09.39-.06a.28.28 0 000-.38c-.11-.1-.22-.1-.39.03zm.85.85l.21.21.21-.21zm15-14.33q-.15-.15-.21 0a.15.15 0 000 .2h.23c.04-.04.04-.12-.06-.21zm1.83 2.91c-.15.15-.17.29 0 .41s.24.09.39-.06.16-.26 0-.37-.26-.1-.43.01zm-13.13 14.25c-.14.14-.26.15-.37 0s-.1-.24 0-.38.28-.17.4-.06.09.28-.07.43zm16.33-11.46c-.14.13-.26.15-.37 0s-.12-.26 0-.4.29-.16.42 0 .07.23-.09.39zm1.33 0c-.13.13-.26.15-.37 0s-.1-.25 0-.4a.28.28 0 01.4 0c.09.12.04.25-.07.39zM261 506c-.16.15-.29.17-.4.06s-.1-.25 0-.42a.25.25 0 01.4 0c.15.07.14.2 0 .36zm-16 19.22c-.07-.1-.06-.25 0-.46a1.92 1.92 0 01.25-.58l.37-.63.34-.37a1.86 1.86 0 01.52-.4l.64-.27.65-.27a1.56 1.56 0 00.5-.33v-.5l.35-.1h.13l.2-.08h.06a.27.27 0 000-.12.31.31 0 000-.13v-.25l.11-.1.21-.25.27-.27.23-.23a2 2 0 01.75-.5l.76-.19.77-.18a2.1 2.1 0 00.75-.5l.23-.27.25-.29-.79-.25a3 3 0 001.45-.7l1.33-1.21a6.14 6.14 0 011.36-1 1.84 1.84 0 011.49-.13l-.27-.27.85-.86a4.18 4.18 0 00.42-.31l.27-.21 1.89-1.31 2-1.22a3.24 3.24 0 01.53-.28l.67-.31.71-.29v.52l.25 1.25v.5l-.29.21-.4.19-.43.14h-.42l.17.21.18.19.52.39c.2.11.41 0 .65-.31l-.22.16-.16.13a2.91 2.91 0 00-.72 1.6l-.38 1.12a2.24 2.24 0 01-.54 1h-.5a1.25 1.25 0 010 .81l-.39.68-.5.63a1.7 1.7 0 00-.36.64l-.16.54-.25.75-.21.67-.13.33-.41.29-.42.29a2.56 2.56 0 001.34.68 10 10 0 002.05.18l2.42-.09 2.43-.14a9 9 0 011.14 0c.32 0 .69 0 1.11.1a4 4 0 011.72.48l-.33.25-.54.42-.56.39-.31.23a2.32 2.32 0 01-.75.21 2.35 2.35 0 01-.45.05h-.43l-.85.1a2.56 2.56 0 00-.83.34l-.23.14-.38.25-.43.13a.6.6 0 01-.36-.13l.52-.52c-.15-.15-.29-.2-.43-.14l-.46.16a1.33 1.33 0 01-.44.19c-.07 0-.21 0-.43-.19l-.13-.12-.17-.38-.1-.39-.17.08-.12.13a.61.61 0 00-.17.45l.21.42.25.38a.18.18 0 010 .29 1.45 1.45 0 00-.94-.32l-1.39-.06-1.41-.08a1.69 1.69 0 01-1-.4l-.08-.12v-.5l-.15-.15-.13-.12-.35-.15a.84.84 0 00-.39-.1l.5-.5-.13-.13-.12-.12-1-.5-.13-.12a.64.64 0 01-.16-.34v-.39l.12-.38.15-.31a.54.54 0 00.16.38.56.56 0 00.36.14.57.57 0 00.37 0l.4-.23-.52-.52.23-.23-.44-.43a3.84 3.84 0 00.67-1 6.84 6.84 0 00.26-.74l.4-1 .62-.87a.94.94 0 01.36 0h.18l-.18-.19-.19-.23a.91.91 0 00-.48-.19l-.7-.16-.75-.05a1 1 0 00-.28 0h-.2v.25a.83.83 0 01-.08.25l-.46.29-.52.23c-.08-.09-.13-.14-.13-.17v-.23l-.35.35.1.15.15.15.19.1.29.17.29.12.21.08-2.25.79a1 1 0 000-.52l-.17-.08-.16-.12-.77.77.16.12.17.08v.52h-1a.47.47 0 010 .46l-.27.35a.72.72 0 01-.46.13h-.68a3.87 3.87 0 00-.87.16 2 2 0 00-.78.53l.54.54c.14.14.06.36-.25.66a.85.85 0 01-.56.27 1.79 1.79 0 01-.58 0l-.6.07-.29.12a1.58 1.58 0 00-.32.19l-.25.25a.72.72 0 00-.2.29 1.69 1.69 0 00.66 0l.63-.21-.13.12-.12.17-.17.13-.08.08-.42.12-.19.07-.16.08-.44.39-.6.61-.61.6-.39.44h-.5l.52.52a.49.49 0 01-.11.68h-.16l-.31-.11a.88.88 0 01-.36-.23l-.37-.25-.21-.16-.08-.34v-.91l.08-.29zm6.78-6.41c-.15.15-.3.18-.44.06s-.1-.27.07-.43a.32.32 0 01.43-.07c.06.1.04.25-.1.44zm-4.49 4.12v.08l.12.13h.63zm-.19.81q-.26.25-.06.48c.11.11.26.08.45-.08s.19-.31.07-.44-.31-.1-.5.04zm2.27-1.77c-.16.16-.18.3-.07.44s.27.1.46 0a.33.33 0 000-.46c-.11-.15-.25-.13-.43.05zm4-3.53a.32.32 0 000 .45c.13.13.27.11.44-.06a.34.34 0 00.08-.46c-.17-.12-.33-.1-.53.07zm3.81-3.31c-.17.17-.18.32 0 .46s.28.11.46 0a.34.34 0 000-.46c-.14-.13-.29-.13-.47 0zm-5.08 6a.4.4 0 01-.29-.19v-.12h.4l.08.12c-.02.06-.1.16-.2.16zm7.6-8a.33.33 0 00-.05.46c.13.12.28.11.46 0s.18-.32 0-.46-.24-.13-.42-.02zm-1.52 2a.3.3 0 000 .46c.11.11.26.09.45 0a.34.34 0 00.07-.48q-.21-.2-.53.02zm-3.39 5.22a.33.33 0 01-.46 0c-.13-.12-.1-.27.06-.43s.31-.19.44-.07.1.32-.05.5zm3.3-2.77a.32.32 0 01-.45 0c-.11-.12-.1-.27 0-.46a.33.33 0 01.46 0c.15.13.14.28-.02.46zm5.93-6.22a.32.32 0 00-.08.42c.11.11.26.1.46 0s.18-.32 0-.46-.22-.12-.4.04zm-1.51 1.52c-.16.16-.19.29-.09.42s.26.1.46 0 .2-.34.06-.48-.26-.12-.44.06zm-1.09 2l.25-.25-.27-.27zm-1 .56a.31.31 0 000 .44c.13.12.27.11.44 0a.35.35 0 00.06-.48c-.12-.17-.28-.15-.48 0zm-1.09 1.91c-.16.17-.32.18-.45.05s-.12-.28 0-.46a.33.33 0 01.46 0c.18.06.17.19.01.37zm-.52.52a.32.32 0 01-.45 0c-.13-.13-.11-.28 0-.46a.32.32 0 01.48-.06c.16.12.16.28-.01.48zm3.42-3.7c-.16.15-.18.3-.07.44s.27.09.46 0a.33.33 0 000-.46c-.04-.15-.18-.15-.37-.02zm-.07 1.73c-.08-.09-.17-.08-.27 0a.44.44 0 000 .23h.23c.14-.13.15-.19.06-.27zm-1.29 1.74a.16.16 0 00-.25 0 .53.53 0 000 .25h.27c.11-.07.11-.16 0-.29zm1.83-2a.33.33 0 000 .46c.11.11.27.09.46 0a.35.35 0 00.06-.48q-.22-.22-.5.03zm-.75.75a.35.35 0 00-.06.48c.13.12.29.1.48-.07a.3.3 0 000-.45c-.05-.1-.2-.09-.37.05zm-1.76 2.27a.33.33 0 00-.07.47c.11.12.27.09.48-.06a.33.33 0 000-.46c-.06-.11-.21-.1-.39.06zm1.49-1a.29.29 0 000 .43c.13.13.27.12.44 0a.35.35 0 00.06-.48c-.11-.12-.27-.1-.48.06zm-2.05 3.51l.22.23.27-.27zm3.22.69a.3.3 0 01-.44.06c-.12-.12-.11-.28 0-.46s.33-.18.48-.06.16.29-.02.47zm-3.16 2.37q-.25.25-.06.48c.12.12.27.1.45-.08s.18-.3.07-.44-.26-.1-.44.05zm3.93-2.64c-.17.17-.31.19-.44.06s-.11-.28 0-.46a.34.34 0 01.46 0c.17.08.15.23 0 .41zm.27.77a.35.35 0 01-.48.06q-.18-.18.06-.48a.33.33 0 01.46 0c.15.06.13.25-.02.43zm-1.19 1.89a.3.3 0 000 .44c.13.12.27.12.44 0a.35.35 0 00.06-.48q-.2-.21-.48.05zm-1.24 1.25a.33.33 0 00-.05.46c.13.12.28.11.46 0a.33.33 0 000-.46c-.05-.14-.2-.13-.39.01zm1.2 0c-.1-.1-.18-.11-.27 0s0 .24 0 .27.23 0 .27 0 .05-.27.02-.3zm-.89 5.93l.12-.38.13-.16.25-.25a1.07 1.07 0 01.5-.34l.56-.06h.54l.56-.19.08-.12.05-.25.08-.25.06-.15a.4.4 0 01.33 0 .35.35 0 00.38-.1l.6-.4a1.58 1.58 0 01.46-.25h.5l.12-.42.13-.37.37-.13.4-.1a1.21 1.21 0 01.05-.14.9.9 0 00.05-.26l.15-.39.27-.11.54-.12h.98L270 526l.23-.23.57-.44.66-.5.6-.35a2 2 0 01.88-.42l.46-.08.33-.08.62-.54.23.1h.65l.18.4.13.58.08.58v.36l-.14.1-.28.06-.22.07h-.13l-.06.23.06.27-.37.12-.52.23a1.49 1.49 0 01-.54.25l-.42.29-.16.16c-.14.14-.18.25-.11.31l.13.34.06.39a.67.67 0 01-.25.5l-.67-.7a.87.87 0 01-.1.64.45.45 0 01-.58.17l-1-.07a1.06 1.06 0 00-.81.28v.49l-.17.17-.19.23a4.85 4.85 0 01-.8.63 3.91 3.91 0 01-1 .49c-.29.13-.63.25-1 .38s-.81.25-1.27.37l-2.22.69a4.42 4.42 0 00-1.65.93l.19.11h.13v.15l-.07.39-.29-.08-.23.06-.1.19-.17.33-.14.35-.09.17-.37.12-.4.11.3.29a.68.68 0 01-.74.22 2.12 2.12 0 01-.78-.53l-.77-.77a1.62 1.62 0 00-.79-.46l.14-.14a1 1 0 01.26-.26 3.25 3.25 0 01.53-.35l.67-.35a6.87 6.87 0 01.67-.33l1.22-.57.79-.29h.29a.37.37 0 00.23 0c.04-.17.08-.29.1-.36zm5.51-7.68a.35.35 0 00-.06.48c.09.1.25.07.46-.08a.29.29 0 000-.42c-.07-.15-.21-.15-.38-.01zm-7.72 8.51c-.15.15-.3.17-.43.06s-.1-.26 0-.46a.33.33 0 01.45 0c.18.04.15.19 0 .37zm-2.51 2.52c-.17.16-.32.19-.46.08s-.09-.27.06-.48a.28.28 0 01.44 0c.13.06.11.2-.02.37zm4.3-3.27a.32.32 0 01-.48.06c-.14-.14-.11-.3.07-.48a.33.33 0 01.45 0c.15.06.13.21-.02.39zm-3.31 3.81a.31.31 0 01-.43 0c-.11-.11-.1-.25 0-.42s.32-.19.46-.08.15.26-.01.47zm10.76-11a.34.34 0 00-.08.46c.11.11.27.09.47-.06a.3.3 0 000-.44c-.08-.21-.19-.19-.37-.04zm-8.11 8.11a.33.33 0 00-.07.44c.11.11.27.1.46 0a.35.35 0 00.06-.48c-.14-.24-.25-.22-.43-.04zm-2.7 3.49h-.11a.77.77 0 010-.25c.08-.08.17-.08.27 0a.2.2 0 010 .11.57.57 0 000 .12.32.32 0 01-.15-.06zm3.9-3.57c-.11-.11-.2-.1-.27 0v.25h.27c.11-.09.11-.19.02-.33zm.75-.75c-.1-.1-.18-.1-.25 0v.25h.27c.01 0 .11-.19 0-.33zm8.18-8.3c-.18.18-.2.34-.07.48s.27.08.46-.08.18-.3.06-.44-.27-.18-.43-.04zm-1.9 2.69c-.15.15-.29.17-.43.06s-.11-.28 0-.46a.35.35 0 01.48-.06c.17.03.14.18-.03.38zm-4.43 4.68c-.16.16-.18.32 0 .45s.25.09.42-.08a.32.32 0 00.08-.42c-.13-.19-.28-.17-.48-.03zm-5.14 6.26a.32.32 0 01-.24 0v-.25c0-.03.18-.1.24 0s.08.06.02.17zm7.1-6.35l-.38-.12a1.21 1.21 0 00-.37-.13l.12.13.15.14.31.15.44.1-.13-.12zm2.08-3a.33.33 0 000 .46c.12.12.27.1.43-.07s.21-.33.09-.45-.31-.14-.5.03zm-4.91 5.7a.3.3 0 01-.44.06c-.12-.12-.11-.28 0-.46a.33.33 0 01.46 0c.19.06.17.2 0 .37zm4.64-5a.32.32 0 000 .45c.12.13.27.12.45 0s.18-.32.05-.45-.29-.14-.48 0zm2.31-1.27a.34.34 0 00-.07.48c.12.11.27.09.48-.07a.3.3 0 000-.43c-.08-.13-.23-.12-.39.01zm2.2-1c-.09-.1-.18-.1-.25 0a.23.23 0 000 .25h.25c.04 0 .09-.17.02-.26zm-1.27 1.27c-.09.09-.09.18 0 .25h.27a.64.64 0 000-.29c0-.11-.09-.1-.25 0zm2.1-1.73a.3.3 0 00-.06.44c.13.12.28.11.46 0a.33.33 0 000-.46c0-.18-.18-.16-.38-.02zm-2.6 3.89a.32.32 0 01-.48.06q-.17-.16.09-.45c.15-.16.3-.18.43-.07s.08.27-.04.46zm4.81-3.26a.31.31 0 01-.46 0c-.11-.11-.1-.27 0-.46a.35.35 0 01.48-.06q.17.2-.04.52z" transform="translate(-168.74 -267.8)"/></svg>