<svg xmlns="http://www.w3.org/2000/svg" width="37" height="37" viewBox="0 0 9.79 9.79"><g data-name="Group 20"><g data-name="Icons / Outlines / Smile"><path data-name="Rectangle" class="cls-37" d="M0-137.695h9.525v9.525H0z"/><path data-name="Smile" class="cls-47" d="M1.395-129.565A4.763 4.763 0 018.13-136.3a4.763 4.763 0 01-6.735 6.735zm-.601-3.367a3.969 3.969 0 103.969-3.97 3.973 3.973 0 00-3.97 3.97zm.794 0a.397.397 0 01.793 0 2.381 2.381 0 104.763 0 .397.397 0 11.794 0 3.175 3.175 0 01-6.35 0zm3.571-1.19a.397.397 0 11.397.396.397.397 0 01-.397-.397zm-1.587 0a.397.397 0 11.397.396.397.397 0 01-.397-.397z"/></g><path data-name="Smile" class="cls-47" d="M1.437 8.352a4.906 4.906 0 016.939-6.938 4.906 4.906 0 01-6.939 6.938zM.818 4.883A4.089 4.089 0 104.907.795 4.093 4.093 0 00.818 4.883zm.818 0a.409.409 0 01.818 0 2.453 2.453 0 104.905 0 .409.409 0 11.818 0 3.27 3.27 0 01-6.541 0zm3.68-1.226a.409.409 0 11.408.408.409.409 0 01-.409-.408zm-1.636 0a.409.409 0 11.409.408.409.409 0 01-.41-.408z" fill="#f7f7f7"/></g></svg>